<svg width="40" height="39" viewBox="0 0 40 39" fill="none" xmlns="http://www.w3.org/2000/svg">
<path fill-rule="evenodd" clip-rule="evenodd" d="M7.186 -9.53674e-06C8.1091 -9.53674e-06 8.8574 0.748311 8.8574 1.67142V5.01428H12.2C13.1231 5.01428 13.8714 5.7626 13.8714 6.6857C13.8714 7.6088 13.1231 8.3571 12.2 8.3571H8.8574V11.7C8.8574 12.6231 8.1091 13.3714 7.186 13.3714C6.2629 13.3714 5.51456 12.6231 5.51456 11.7V8.3571H2.17143C1.24832 8.3571 0.5 7.6088 0.5 6.6857C0.5 5.7626 1.24832 5.01428 2.17143 5.01428H5.51456V1.67142C5.51456 0.748311 6.2629 -9.53674e-06 7.186 -9.53674e-06ZM18.886 1.11428C17.9629 1.11428 17.2146 1.8626 17.2146 2.78571C17.2146 3.70881 17.9629 4.45714 18.886 4.45714H31.1431C33.9124 4.45714 36.1574 6.7021 36.1574 9.4714V21.7286H25.5714C23.7252 21.7286 22.2286 23.2252 22.2286 25.0714V35.6571H9.9717C7.2024 35.6571 4.95742 33.4122 4.95742 30.6429V18.3857C4.95742 17.4626 4.20909 16.7143 3.28599 16.7143C2.36288 16.7143 1.61456 17.4626 1.61456 18.3857V30.6429C1.61456 35.2584 5.35618 39 9.9717 39H22.7536C24.379 39 25.9378 38.3543 27.0871 37.205L37.7053 26.5869C38.8546 25.4375 39.5003 23.8787 39.5003 22.2533V9.4714C39.5003 4.8559 35.7587 1.11428 31.1431 1.11428H18.886ZM25.5714 33.9932L34.4932 25.0714H25.5714V33.9932Z" fill="#1D1C1D"/>
</svg>
