<svg width="48" height="48" viewBox="0 0 48 48" fill="none" xmlns="http://www.w3.org/2000/svg">
<path d="M42.0001 0.950209H6.00021C5.32889 0.948631 4.66383 1.0793 4.04301 1.33474C3.42219 1.59019 2.85776 1.96541 2.38196 2.43899C1.90614 2.91257 1.52828 3.47522 1.26992 4.09484C1.01156 4.71446 0.877778 5.37889 0.876203 6.05021V42.0502C0.869835 42.7259 0.997847 43.3963 1.2528 44.0222C1.50776 44.648 1.88456 45.2171 2.36132 45.6961C2.83808 46.175 3.40529 46.5545 4.02998 46.8124C4.65467 47.0702 5.32439 47.2013 6.00021 47.1982H42.0001C42.676 47.2013 43.3458 47.0702 43.9704 46.8124C44.5952 46.5545 45.1623 46.175 45.6391 45.6961C46.1158 45.2171 46.4927 44.648 46.7477 44.0222C47.0025 43.3963 47.1306 42.7259 47.1241 42.0502V6.05021C47.1226 5.37889 46.9888 4.71446 46.7305 4.09484C46.4721 3.47522 46.0943 2.91257 45.6185 2.43899C45.1427 1.96541 44.5782 1.59019 43.9573 1.33474C43.3365 1.0793 42.6715 0.948631 42.0001 0.950209ZM44.1241 42.0502C44.1306 42.332 44.0803 42.6122 43.9761 42.8741C43.872 43.1362 43.7161 43.3744 43.518 43.5749C43.3198 43.7753 43.0833 43.9339 42.8224 44.041C42.5617 44.1479 42.282 44.2015 42.0001 44.1982H6.00021C5.71833 44.2015 5.43867 44.1479 5.17791 44.041C4.91715 43.9339 4.68062 43.7753 4.48241 43.5749C4.2842 43.3744 4.12838 43.1362 4.02423 42.8741C3.92009 42.6122 3.86975 42.332 3.87621 42.0502V6.05021C3.87618 5.7724 3.93129 5.49736 4.03832 5.24099C4.14536 4.98463 4.30218 4.75205 4.49975 4.55674C4.6973 4.36141 4.93164 4.20724 5.18919 4.10312C5.44676 3.99901 5.72241 3.94703 6.00021 3.95021H42.0001C42.2779 3.94703 42.5537 3.99901 42.8112 4.10312C43.0688 4.20724 43.3031 4.36141 43.5006 4.55674C43.6982 4.75205 43.855 4.98463 43.9621 5.24099C44.0691 5.49736 44.1241 5.7724 44.1241 6.05021V42.0502Z" fill="#1D1C1D"/>
<path d="M34.884 16.646H31.2L31.716 13.166C31.7443 12.9706 31.7338 12.7715 31.6854 12.5801C31.6368 12.3887 31.551 12.2088 31.4328 12.0505C31.1943 11.731 30.8386 11.5193 30.444 11.462C30.0493 11.4047 29.6481 11.5065 29.3284 11.7451C29.0089 11.9836 28.7971 12.3393 28.74 12.734L28.164 16.646H22.476L22.98 13.166C23.0206 12.966 23.02 12.7599 22.9783 12.5602C22.9365 12.3604 22.8544 12.1713 22.7371 12.0044C22.6198 11.8375 22.4697 11.6963 22.2958 11.5894C22.122 11.4825 21.9282 11.4122 21.7263 11.3827C21.5244 11.3533 21.3186 11.3654 21.1216 11.4182C20.9245 11.4711 20.7403 11.5636 20.5801 11.69C20.4201 11.8165 20.2875 11.9743 20.1904 12.1538C20.0934 12.3333 20.034 12.5307 20.016 12.734L19.44 16.646H14.5439C14.1461 16.646 13.7646 16.804 13.4833 17.0852C13.202 17.3666 13.0439 17.7481 13.0439 18.146C13.0439 18.5438 13.202 18.9253 13.4833 19.2067C13.7646 19.4879 14.1461 19.646 14.5439 19.646H19.008L17.928 27.038H13.1279C12.7301 27.038 12.3486 27.196 12.0673 27.4772C11.786 27.7586 11.6279 28.1401 11.6279 28.538C11.6279 28.9358 11.786 29.3173 12.0673 29.5987C12.3486 29.8799 12.7301 30.038 13.1279 30.038H17.496L16.8 34.982C16.7401 35.3662 16.8318 35.7586 17.0556 36.0764C17.2795 36.3943 17.6181 36.6128 18 36.686H18.228C18.5869 36.6839 18.9333 36.5533 19.204 36.3176C19.4749 36.0821 19.6522 35.7573 19.704 35.4021L20.52 30.05H26.184L25.464 34.994C25.4055 35.3869 25.5052 35.7871 25.7415 36.1066C25.9777 36.4261 26.331 36.6388 26.724 36.698H26.952C27.3109 36.6959 27.6573 36.5653 27.928 36.3296C28.1989 36.0941 28.3762 35.7692 28.428 35.414L29.22 30.05H33.456C33.8538 30.05 34.2352 29.8919 34.5166 29.6107C34.7979 29.3293 34.956 28.9478 34.956 28.55C34.956 28.1521 34.7979 27.7707 34.5166 27.4893C34.2352 27.208 33.8538 27.05 33.456 27.05H29.652L30.744 19.658H34.884C35.2818 19.658 35.6632 19.4999 35.9446 19.2187C36.2259 18.9373 36.384 18.5558 36.384 18.158C36.384 17.7601 36.2259 17.3786 35.9446 17.0972C35.6632 16.816 35.2818 16.658 34.884 16.658V16.646ZM26.628 27.038H20.952L22.032 19.646H27.708L26.628 27.038Z" fill="#1D1C1D"/>
</svg>
