<svg width="48" height="47" viewBox="0 0 48 47" fill="none" xmlns="http://www.w3.org/2000/svg">
<path d="M41.9999 9.07203H35.7719C35.8296 8.11471 35.7117 7.1549 35.4239 6.24003C35.0166 4.94799 34.2693 3.78935 33.2599 2.88567C32.2507 1.982 31.0169 1.3666 29.6879 1.10403C28.577 0.876143 27.4292 0.898319 26.3279 1.16895C25.2264 1.43959 24.199 1.95191 23.3202 2.66876C22.4415 3.38561 21.7332 4.28903 21.2468 5.31353C20.7603 6.33803 20.5078 7.45793 20.5078 8.59203C20.5078 8.74803 20.5078 8.91603 20.5078 9.07203H14.2919C12.9403 9.07521 11.6449 9.61354 10.6891 10.5693C9.7334 11.525 9.19505 12.8204 9.19188 14.172V19.728C8.14037 19.6445 7.08294 19.7794 6.08614 20.1246C5.08935 20.4696 4.17475 21.0172 3.3999 21.733C2.62506 22.4487 2.00673 23.317 1.58383 24.2835C1.16094 25.2498 0.942627 26.2932 0.942627 27.348C0.942627 28.4028 1.16094 29.4464 1.58383 30.4127C2.00673 31.379 2.62506 32.2473 3.3999 32.9631C4.17475 33.6788 5.08935 34.2264 6.08614 34.5716C7.08294 34.9166 8.14037 35.0516 9.19188 34.968V41.88C9.19505 43.2317 9.7334 44.527 10.6891 45.4828C11.6449 46.4385 12.9403 46.9768 14.2919 46.98H41.9999C43.3515 46.9768 44.6469 46.4385 45.6025 45.4828C46.5583 44.527 47.0967 43.2317 47.0999 41.88V14.172C47.0967 12.8204 46.5583 11.525 45.6025 10.5693C44.6469 9.61354 43.3515 9.07521 41.9999 9.07203ZM44.0999 41.88C44.0967 42.4361 43.8744 42.9684 43.4812 43.3615C43.0882 43.7545 42.5559 43.9768 41.9999 43.98H14.2919C13.7359 43.9768 13.2036 43.7545 12.8104 43.3615C12.4173 42.9684 12.195 42.4361 12.1919 41.88V33.096C12.1854 32.8593 12.1234 32.6273 12.0109 32.4189C11.8983 32.2104 11.7383 32.0313 11.5439 31.896C11.2919 31.7263 10.9956 31.6345 10.6919 31.632C10.5119 31.6357 10.3336 31.6682 10.1639 31.728C9.3831 32.0204 8.53803 32.0972 7.71736 31.9502C6.8967 31.8033 6.13071 31.4382 5.49979 30.8933C4.86888 30.3483 4.39631 29.6435 4.13169 28.8528C3.86708 28.0623 3.82015 27.215 3.99588 26.4C4.13481 25.7469 4.41296 25.1314 4.81137 24.5955C5.20977 24.0595 5.71905 23.616 6.30449 23.2947C6.88994 22.9736 7.53776 22.7823 8.20379 22.7343C8.8698 22.6862 9.53836 22.7823 10.1639 23.016C10.3918 23.0988 10.6364 23.1255 10.8768 23.094C11.1173 23.0623 11.3466 22.9734 11.5455 22.8345C11.7443 22.6957 11.9069 22.5111 12.0194 22.2962C12.1319 22.0814 12.191 21.8425 12.1919 21.6V14.172C12.1919 13.6151 12.4131 13.0809 12.807 12.6871C13.2008 12.2933 13.7349 12.072 14.2919 12.072H22.3319C22.5705 12.0739 22.8061 12.0183 23.0188 11.91C23.2315 11.8017 23.4151 11.6438 23.5539 11.4497C23.6928 11.2555 23.7829 11.0308 23.8167 10.7945C23.8504 10.5582 23.8267 10.3173 23.7478 10.092C23.5912 9.60734 23.5102 9.1014 23.5078 8.59203C23.5066 7.91708 23.6525 7.24994 23.9352 6.6371C24.2181 6.02424 24.6311 5.48042 25.1456 5.04347C25.6601 4.60653 26.2635 4.28697 26.914 4.10708C27.5646 3.92717 28.2465 3.89123 28.9124 4.00176C29.5782 4.1123 30.212 4.36664 30.7695 4.74708C31.3271 5.12754 31.7949 5.62494 32.1406 6.20468C32.4862 6.7844 32.7015 7.4325 32.7711 8.10387C32.8407 8.77522 32.7631 9.45369 32.5438 10.092C32.4649 10.3173 32.4414 10.5582 32.4752 10.7945C32.5089 11.0308 32.599 11.2555 32.7378 11.4497C32.8767 11.6438 33.0602 11.8017 33.2729 11.91C33.4856 12.0183 33.7212 12.0739 33.9599 12.072H41.9999C42.5568 12.072 43.091 12.2933 43.4849 12.6871C43.8786 13.0809 44.0999 13.6151 44.0999 14.172V41.88Z" fill="#1D1C1D"/>
<path d="M35.9998 25.8121H29.9998V20.4001C29.9998 20.0023 29.8417 19.6207 29.5605 19.3395C29.2792 19.0582 28.8976 18.9001 28.4998 18.9001C28.102 18.9001 27.7204 19.0582 27.4392 19.3395C27.1579 19.6207 26.9998 20.0023 26.9998 20.4001V25.8121H21.5998C21.2268 25.8456 20.8797 26.0175 20.6268 26.2939C20.374 26.5704 20.2339 26.9314 20.2339 27.3061C20.2339 27.6807 20.374 28.0419 20.6268 28.3183C20.8797 28.5948 21.2268 28.7667 21.5998 28.8001H27.0118V34.8001C27.0453 35.1732 27.2172 35.5203 27.4936 35.7732C27.7701 36.0259 28.1313 36.166 28.5058 36.166C28.8804 36.166 29.2416 36.0259 29.518 35.7732C29.7945 35.5203 29.9664 35.1732 29.9998 34.8001V28.8001H35.9998C36.3976 28.8001 36.7792 28.642 37.0605 28.3608C37.3417 28.0795 37.4998 27.6979 37.4998 27.3001C37.4998 26.9023 37.3417 26.5207 37.0605 26.2395C36.7792 25.9582 36.3976 25.8001 35.9998 25.8001V25.8121Z" fill="#1D1C1D"/>
</svg>
