<svg width="40" height="48" viewBox="0 0 40 48" fill="none" xmlns="http://www.w3.org/2000/svg">
<path d="M31.8001 16.0199H18.1801C17.7823 16.0199 17.4007 16.178 17.1195 16.4592C16.8382 16.7406 16.6801 17.1221 16.6801 17.5199C16.6801 17.9177 16.8382 18.2993 17.1195 18.5805C17.4007 18.8619 17.7823 19.0199 18.1801 19.0199H31.8001C32.1979 19.0199 32.5795 18.8619 32.8608 18.5805C33.1422 18.2993 33.3001 17.9177 33.3001 17.5199C33.3001 17.1221 33.1422 16.7406 32.8608 16.4592C32.5795 16.178 32.1979 16.0199 31.8001 16.0199Z" fill="#1D1C1D"/>
<path d="M31.8001 21.672H18.1801C17.7823 21.672 17.4007 21.8301 17.1195 22.1113C16.8382 22.3926 16.6801 22.7742 16.6801 23.172C16.6801 23.5698 16.8382 23.9514 17.1195 24.2326C17.4007 24.5139 17.7823 24.672 18.1801 24.672H31.8001C32.1979 24.672 32.5795 24.5139 32.8608 24.2326C33.1422 23.9514 33.3001 23.5698 33.3001 23.172C33.3001 22.7742 33.1422 22.3926 32.8608 22.1113C32.5795 21.8301 32.1979 21.672 31.8001 21.672Z" fill="#1D1C1D"/>
<path d="M31.8 27.5999H25.44C25.0421 27.5999 24.6606 27.758 24.3794 28.0392C24.098 28.3205 23.94 28.7021 23.94 29.0999C23.94 29.4977 24.098 29.8793 24.3794 30.1605C24.6606 30.4418 25.0421 30.5999 25.44 30.5999H31.8C32.1978 30.5999 32.5793 30.4418 32.8607 30.1605C33.1419 29.8793 33.3 29.4977 33.3 29.0999C33.3 28.7021 33.1419 28.3205 32.8607 28.0392C32.5793 27.758 32.1978 27.5999 31.8 27.5999Z" fill="#1D1C1D"/>
<path d="M29.3999 0.900146H15.1559C13.9773 0.903323 12.848 1.37377 12.0156 2.20834C11.1833 3.04291 10.7159 4.17348 10.7159 5.35215V28.5241L5.6519 30.1081C5.06027 30.2913 4.5341 30.6414 4.13662 31.1163C3.73913 31.5912 3.48724 32.1708 3.4112 32.7855C3.33517 33.4001 3.43822 34.0236 3.70798 34.5812C3.97774 35.1386 4.40273 35.6064 4.9319 35.9282L5.1479 36.0602L1.7999 38.9642C1.46813 39.254 1.19971 39.6092 1.01138 40.0074C0.823055 40.4057 0.71888 40.8384 0.705365 41.2788C0.69185 41.719 0.769295 42.1575 0.93284 42.5666C1.09639 42.9756 1.34254 43.3465 1.6559 43.6561L4.4519 46.4642C4.7641 46.7736 5.13619 47.016 5.54537 47.1765C5.95456 47.337 6.39223 47.4123 6.83153 47.3977C7.27084 47.383 7.70254 47.2789 8.10016 47.0916C8.49778 46.9042 8.85296 46.6376 9.1439 46.3082L12.0479 42.9962L12.1799 43.2121C12.5049 43.7368 12.9734 44.1573 13.53 44.4239C14.0867 44.6904 14.708 44.7918 15.3206 44.716C15.933 44.6403 16.5108 44.3906 16.9857 43.9964C17.4606 43.6022 17.8127 43.0802 17.9999 42.4922L19.3919 38.0282H34.9919C35.5776 38.033 36.1584 37.9221 36.7011 37.7019C37.2438 37.4818 37.7379 37.1568 38.1548 36.7455C38.5716 36.334 38.9033 35.8446 39.1307 35.3049C39.3581 34.7651 39.4767 34.1858 39.4799 33.6002V11.1961L29.3999 0.900146ZM30.2639 6.07215L34.4159 10.3081H30.2519L30.2639 6.07215ZM15.1679 41.6041C15.1547 41.6473 15.1274 41.685 15.0905 41.711C15.0536 41.7371 15.009 41.7501 14.9639 41.7481C14.9279 41.7507 14.892 41.743 14.8601 41.7261C14.8283 41.709 14.8019 41.6835 14.7839 41.6522L12.6719 38.1961C12.6521 38.1666 12.6254 38.1423 12.594 38.1255C12.5625 38.1088 12.5276 38.1002 12.4919 38.1002C12.4622 38.0993 12.4325 38.1053 12.4055 38.1177C12.3783 38.1302 12.3545 38.1489 12.3359 38.1721L6.9239 44.3281C6.90527 44.3514 6.88148 44.37 6.85441 44.3826C6.82733 44.395 6.79771 44.401 6.7679 44.4001C6.71356 44.4193 6.65425 44.4193 6.5999 44.4001L3.8039 41.5322C3.76424 41.4899 3.74218 41.4341 3.74218 41.3762C3.74218 41.3183 3.76424 41.2625 3.8039 41.2202L9.9599 35.8202C9.98719 35.8001 10.0094 35.7738 10.0247 35.7436C10.04 35.7133 10.0479 35.68 10.0479 35.6461C10.0479 35.6122 10.04 35.579 10.0247 35.5487C10.0094 35.5184 9.98719 35.4922 9.9599 35.4721L6.5039 33.3602C6.46436 33.3459 6.43016 33.3199 6.40598 33.2854C6.38182 33.2511 6.36884 33.2102 6.36884 33.1682C6.36884 33.1262 6.38182 33.0852 6.40598 33.0507C6.43016 33.0164 6.46436 32.9904 6.5039 32.9762L18.6599 29.1721H18.7199C18.7541 29.1699 18.7881 29.1763 18.819 29.1906C18.8501 29.205 18.8769 29.2271 18.8973 29.2545C18.9176 29.282 18.9306 29.314 18.9353 29.3479C18.9399 29.3817 18.936 29.4162 18.9239 29.4481L15.1679 41.6041ZM35.0279 35.0282H20.3639L21.8399 30.3362C21.9906 29.8544 22.0257 29.3441 21.9426 28.8462C21.8594 28.3484 21.6602 27.8771 21.3611 27.4704C21.062 27.0639 20.6714 26.7334 20.2209 26.5057C19.7705 26.2782 19.2726 26.1597 18.7679 26.1601C18.4425 26.16 18.119 26.2086 17.8079 26.3042L13.7159 27.6002V5.35215C13.7159 4.96912 13.8672 4.60161 14.1369 4.32964C14.4066 4.05768 14.7729 3.90331 15.1559 3.90015H27.2519V10.6201C27.255 11.3341 27.5409 12.0178 28.047 12.5216C28.553 13.0253 29.2379 13.3081 29.9519 13.3081H36.4799V33.6002C36.4736 33.981 36.3179 34.3443 36.0462 34.6115C35.7746 34.8785 35.4089 35.0282 35.0279 35.0282Z" fill="#1D1C1D"/>
</svg>
