<svg width="43" height="48" viewBox="0 0 43 48" fill="none" xmlns="http://www.w3.org/2000/svg">
<path d="M37.696 7.19985C35.8927 5.12652 33.6653 3.46438 31.1645 2.32578C28.6637 1.18716 25.9477 0.598602 23.2 0.599856C22.3532 0.602052 21.5075 0.658165 20.668 0.767855C17.4056 1.18612 14.3053 2.43543 11.6645 4.39603C9.02368 6.35662 6.93077 8.96277 5.58647 11.9646C4.24217 14.9664 3.69154 18.2632 3.98737 21.5389C4.2832 24.8146 5.41558 27.9594 7.27594 30.6719L1.51594 38.0758C0.849908 38.9289 0.437138 39.9522 0.324773 41.0286C0.212408 42.105 0.404963 43.1914 0.880463 44.1637C1.35595 45.1359 2.09524 45.9549 3.01391 46.5272C3.93257 47.0994 4.99363 47.4018 6.07594 47.3998C6.95015 47.401 7.81309 47.2027 8.59912 46.8201C9.38515 46.4374 10.0735 45.8806 10.6119 45.1918L16.36 37.8719C19.4956 39.0609 22.8859 39.4164 26.2 38.9038C29.6123 38.3853 32.8217 36.9566 35.4907 34.7679C38.1595 32.5793 40.189 29.7116 41.3656 26.4668C42.5422 23.222 42.8224 19.7199 42.1765 16.3293C41.5307 12.9388 39.9829 9.78498 37.696 7.19985ZM39.352 22.0559C38.8889 25.5341 37.3157 28.77 34.8661 31.2824C32.4164 33.7946 29.2213 35.4492 25.756 35.9999C24.9181 36.1281 24.0716 36.1923 23.224 36.1918C20.8606 36.1966 18.5251 35.6803 16.384 34.6798C16.2031 34.5964 16.007 34.5516 15.808 34.5479C15.6164 34.5477 15.4274 34.5909 15.2551 34.674C15.0826 34.7571 14.9311 34.878 14.812 35.0279L8.25994 43.4279C7.99094 43.742 7.65536 43.992 7.27757 44.1601C6.8998 44.3283 6.48931 44.4102 6.07594 44.3998C5.55698 44.3994 5.04859 44.2533 4.60858 43.9782C4.16858 43.7029 3.81466 43.3098 3.58709 42.8434C3.35951 42.3771 3.26744 41.8561 3.32134 41.34C3.37523 40.8238 3.57293 40.3332 3.89194 39.9239L10.4559 31.5238C10.6311 31.297 10.7261 31.0185 10.7261 30.7318C10.7261 30.4452 10.6311 30.1666 10.4559 29.9398C8.80267 27.8281 7.69739 25.3402 7.2386 22.6978C6.77981 20.0554 6.98174 17.3407 7.82641 14.7952C8.67107 12.2498 10.1322 9.95284 12.0797 8.10897C14.0272 6.26508 16.4006 4.93153 18.9883 4.22715C21.5761 3.52276 24.2978 3.46941 26.9113 4.07182C29.5246 4.67424 31.9484 5.91373 33.9667 7.67988C35.9849 9.44602 37.535 11.684 38.4788 14.1943C39.4226 16.7048 39.7307 19.4095 39.376 22.0678L39.352 22.0559Z" fill="#1D1C1D"/>
<path d="M23.1998 8.77185C20.4133 8.77725 17.7302 9.82832 15.6814 11.7171C13.6327 13.6059 12.3674 16.1949 12.1359 18.9719H10.3359C10.2352 18.9704 10.1363 18.9992 10.0521 19.0544C9.96784 19.1097 9.90211 19.1889 9.86335 19.2819C9.8246 19.3749 9.81461 19.4775 9.83468 19.5762C9.85474 19.6749 9.90394 19.7654 9.97591 19.8359L13.1678 23.0399C13.2643 23.1338 13.3934 23.1863 13.5278 23.1863C13.6624 23.1863 13.7915 23.1338 13.8878 23.0399L17.0918 19.8359C17.1638 19.7654 17.213 19.6749 17.2331 19.5762C17.2532 19.4775 17.2432 19.3749 17.2045 19.2819C17.1656 19.1889 17.0999 19.1097 17.0158 19.0544C16.9315 18.9992 16.8326 18.9704 16.7318 18.9719H15.0878C15.3056 17.0856 16.1798 15.3362 17.5577 14.0298C18.9356 12.7235 20.729 11.9435 22.6241 11.8265C24.5192 11.7095 26.3951 12.2629 27.9232 13.3899C29.4512 14.5169 30.5341 16.1456 30.9821 17.9906C31.4302 19.8357 31.2148 21.7796 30.3737 23.4818C29.5327 25.1841 28.1195 26.5362 26.3819 27.3013C24.6442 28.0665 22.6927 28.1958 20.8691 27.6669C19.0456 27.1378 17.4664 25.9842 16.4078 24.4079C16.186 24.0794 15.8431 23.8519 15.4541 23.7754C15.065 23.6991 14.6617 23.7797 14.3318 23.9999C14.0026 24.224 13.7749 24.5689 13.6985 24.96C13.6222 25.3509 13.7032 25.7562 13.9238 26.0878C14.9935 27.6772 16.4558 28.9631 18.169 29.8205C19.8821 30.678 21.7879 31.0779 23.7013 30.9816C25.6145 30.8853 27.4705 30.296 29.0888 29.2709C30.7072 28.2458 32.033 26.8196 32.9377 25.1309C33.8423 23.4422 34.2951 21.5483 34.2519 19.6329C34.2087 17.7177 33.6709 15.8462 32.6909 14.1999C31.7111 12.5538 30.3223 11.1889 28.6592 10.2378C26.9963 9.28671 25.1156 8.78172 23.1998 8.77185Z" fill="#1D1C1D"/>
</svg>
